<mxfile host="app.diagrams.net" modified="2023-03-25T20:22:31.366Z" agent="Mozilla/5.0 (Windows NT 10.0; Win64; x64) AppleWebKit/537.36 (KHTML, like Gecko) Chrome/111.0.0.0 Safari/537.36" etag="wRnNc_bLyez-123_b-dL" version="21.1.0" type="device">
  <diagram id="C5RBs43oDa-KdzZeNtuy" name="Page-1">
    <mxGraphModel dx="2049" dy="1091" grid="1" gridSize="10" guides="1" tooltips="1" connect="1" arrows="1" fold="1" page="1" pageScale="1" pageWidth="827" pageHeight="1169" math="0" shadow="0">
      <root>
        <mxCell id="WIyWlLk6GJQsqaUBKTNV-0" />
        <mxCell id="WIyWlLk6GJQsqaUBKTNV-1" parent="WIyWlLk6GJQsqaUBKTNV-0" />
        <mxCell id="MXWRrgh-1NHvLf5P_rR3-10" style="edgeStyle=orthogonalEdgeStyle;rounded=0;orthogonalLoop=1;jettySize=auto;html=1;exitX=0.5;exitY=1;exitDx=0;exitDy=0;" edge="1" parent="WIyWlLk6GJQsqaUBKTNV-1" source="WIyWlLk6GJQsqaUBKTNV-3">
          <mxGeometry relative="1" as="geometry">
            <mxPoint x="380.0588235294117" y="120" as="targetPoint" />
          </mxGeometry>
        </mxCell>
        <mxCell id="WIyWlLk6GJQsqaUBKTNV-3" value="Начало" style="rounded=1;whiteSpace=wrap;html=1;fontSize=12;glass=0;strokeWidth=1;shadow=0;" parent="WIyWlLk6GJQsqaUBKTNV-1" vertex="1">
          <mxGeometry x="320" y="40" width="120" height="40" as="geometry" />
        </mxCell>
        <mxCell id="MXWRrgh-1NHvLf5P_rR3-14" style="edgeStyle=orthogonalEdgeStyle;rounded=0;orthogonalLoop=1;jettySize=auto;html=1;exitX=1;exitY=0.5;exitDx=0;exitDy=0;" edge="1" parent="WIyWlLk6GJQsqaUBKTNV-1" source="WIyWlLk6GJQsqaUBKTNV-10">
          <mxGeometry relative="1" as="geometry">
            <mxPoint x="494" y="480" as="targetPoint" />
          </mxGeometry>
        </mxCell>
        <mxCell id="MXWRrgh-1NHvLf5P_rR3-20" value="да" style="edgeLabel;html=1;align=center;verticalAlign=middle;resizable=0;points=[];" vertex="1" connectable="0" parent="MXWRrgh-1NHvLf5P_rR3-14">
          <mxGeometry x="-0.3019" y="2" relative="1" as="geometry">
            <mxPoint as="offset" />
          </mxGeometry>
        </mxCell>
        <mxCell id="MXWRrgh-1NHvLf5P_rR3-18" style="edgeStyle=orthogonalEdgeStyle;rounded=0;orthogonalLoop=1;jettySize=auto;html=1;exitX=0.5;exitY=1;exitDx=0;exitDy=0;entryX=0.473;entryY=-0.15;entryDx=0;entryDy=0;entryPerimeter=0;" edge="1" parent="WIyWlLk6GJQsqaUBKTNV-1" source="WIyWlLk6GJQsqaUBKTNV-10" target="MXWRrgh-1NHvLf5P_rR3-4">
          <mxGeometry relative="1" as="geometry" />
        </mxCell>
        <mxCell id="MXWRrgh-1NHvLf5P_rR3-19" style="edgeStyle=orthogonalEdgeStyle;rounded=0;orthogonalLoop=1;jettySize=auto;html=1;entryX=0;entryY=0.5;entryDx=0;entryDy=0;" edge="1" parent="WIyWlLk6GJQsqaUBKTNV-1" target="MXWRrgh-1NHvLf5P_rR3-1">
          <mxGeometry relative="1" as="geometry">
            <mxPoint x="380" y="560" as="sourcePoint" />
            <Array as="points">
              <mxPoint x="260" y="560" />
              <mxPoint x="260" y="335" />
            </Array>
          </mxGeometry>
        </mxCell>
        <mxCell id="WIyWlLk6GJQsqaUBKTNV-10" value="sourceArray[i].Length =&amp;lt;3" style="rhombus;whiteSpace=wrap;html=1;shadow=0;fontFamily=Helvetica;fontSize=12;align=center;strokeWidth=1;spacing=6;spacingTop=-4;" parent="WIyWlLk6GJQsqaUBKTNV-1" vertex="1">
          <mxGeometry x="294" y="407" width="180" height="80" as="geometry" />
        </mxCell>
        <mxCell id="MXWRrgh-1NHvLf5P_rR3-11" style="edgeStyle=orthogonalEdgeStyle;rounded=0;orthogonalLoop=1;jettySize=auto;html=1;" edge="1" parent="WIyWlLk6GJQsqaUBKTNV-1" source="MXWRrgh-1NHvLf5P_rR3-0">
          <mxGeometry relative="1" as="geometry">
            <mxPoint x="385" y="210" as="targetPoint" />
          </mxGeometry>
        </mxCell>
        <mxCell id="MXWRrgh-1NHvLf5P_rR3-0" value="ввод sourceArray" style="shape=parallelogram;perimeter=parallelogramPerimeter;whiteSpace=wrap;html=1;fixedSize=1;" vertex="1" parent="WIyWlLk6GJQsqaUBKTNV-1">
          <mxGeometry x="325" y="125" width="120" height="50" as="geometry" />
        </mxCell>
        <mxCell id="MXWRrgh-1NHvLf5P_rR3-13" style="edgeStyle=orthogonalEdgeStyle;rounded=0;orthogonalLoop=1;jettySize=auto;html=1;exitX=0.5;exitY=1;exitDx=0;exitDy=0;" edge="1" parent="WIyWlLk6GJQsqaUBKTNV-1" source="MXWRrgh-1NHvLf5P_rR3-1">
          <mxGeometry relative="1" as="geometry">
            <mxPoint x="378.8823529411766" y="399.9999999999998" as="targetPoint" />
          </mxGeometry>
        </mxCell>
        <mxCell id="MXWRrgh-1NHvLf5P_rR3-1" value="i=0; i&amp;lt;sourceArray.Length, i++" style="shape=hexagon;perimeter=hexagonPerimeter2;whiteSpace=wrap;html=1;fixedSize=1;" vertex="1" parent="WIyWlLk6GJQsqaUBKTNV-1">
          <mxGeometry x="294" y="310" width="170" height="50" as="geometry" />
        </mxCell>
        <mxCell id="MXWRrgh-1NHvLf5P_rR3-12" style="edgeStyle=orthogonalEdgeStyle;rounded=0;orthogonalLoop=1;jettySize=auto;html=1;exitX=0.5;exitY=1;exitDx=0;exitDy=0;" edge="1" parent="WIyWlLk6GJQsqaUBKTNV-1" source="MXWRrgh-1NHvLf5P_rR3-2">
          <mxGeometry relative="1" as="geometry">
            <mxPoint x="378.8823529411766" y="300" as="targetPoint" />
          </mxGeometry>
        </mxCell>
        <mxCell id="MXWRrgh-1NHvLf5P_rR3-2" value="count=0" style="rounded=0;whiteSpace=wrap;html=1;" vertex="1" parent="WIyWlLk6GJQsqaUBKTNV-1">
          <mxGeometry x="334" y="220" width="90" height="40" as="geometry" />
        </mxCell>
        <mxCell id="MXWRrgh-1NHvLf5P_rR3-17" style="edgeStyle=orthogonalEdgeStyle;rounded=0;orthogonalLoop=1;jettySize=auto;html=1;exitX=0.5;exitY=1;exitDx=0;exitDy=0;" edge="1" parent="WIyWlLk6GJQsqaUBKTNV-1">
          <mxGeometry relative="1" as="geometry">
            <mxPoint x="495" y="521" as="sourcePoint" />
            <mxPoint x="400" y="551" as="targetPoint" />
            <Array as="points">
              <mxPoint x="495" y="551" />
              <mxPoint x="450" y="551" />
            </Array>
          </mxGeometry>
        </mxCell>
        <mxCell id="MXWRrgh-1NHvLf5P_rR3-3" value="count++" style="rounded=0;whiteSpace=wrap;html=1;" vertex="1" parent="WIyWlLk6GJQsqaUBKTNV-1">
          <mxGeometry x="450" y="490" width="90" height="40" as="geometry" />
        </mxCell>
        <mxCell id="MXWRrgh-1NHvLf5P_rR3-31" style="edgeStyle=orthogonalEdgeStyle;rounded=0;orthogonalLoop=1;jettySize=auto;html=1;exitX=0.5;exitY=1;exitDx=0;exitDy=0;" edge="1" parent="WIyWlLk6GJQsqaUBKTNV-1" source="MXWRrgh-1NHvLf5P_rR3-4">
          <mxGeometry relative="1" as="geometry">
            <mxPoint x="388" y="660" as="targetPoint" />
          </mxGeometry>
        </mxCell>
        <mxCell id="MXWRrgh-1NHvLf5P_rR3-4" value="outcomeArray= new string&lt;br&gt;count=0" style="rounded=0;whiteSpace=wrap;html=1;" vertex="1" parent="WIyWlLk6GJQsqaUBKTNV-1">
          <mxGeometry x="325" y="586" width="125" height="40" as="geometry" />
        </mxCell>
        <mxCell id="MXWRrgh-1NHvLf5P_rR3-7" value="outcomeArray[count]= sourceArray[i]&lt;br&gt;count++" style="rounded=0;whiteSpace=wrap;html=1;" vertex="1" parent="WIyWlLk6GJQsqaUBKTNV-1">
          <mxGeometry x="445" y="852" width="125" height="40" as="geometry" />
        </mxCell>
        <mxCell id="MXWRrgh-1NHvLf5P_rR3-8" value="конец" style="rounded=1;whiteSpace=wrap;html=1;fontSize=12;glass=0;strokeWidth=1;shadow=0;" vertex="1" parent="WIyWlLk6GJQsqaUBKTNV-1">
          <mxGeometry x="333" y="1057" width="120" height="40" as="geometry" />
        </mxCell>
        <mxCell id="MXWRrgh-1NHvLf5P_rR3-30" style="edgeStyle=orthogonalEdgeStyle;rounded=0;orthogonalLoop=1;jettySize=auto;html=1;" edge="1" parent="WIyWlLk6GJQsqaUBKTNV-1" source="MXWRrgh-1NHvLf5P_rR3-9">
          <mxGeometry relative="1" as="geometry">
            <mxPoint x="392" y="1050" as="targetPoint" />
          </mxGeometry>
        </mxCell>
        <mxCell id="MXWRrgh-1NHvLf5P_rR3-9" value="outcomeArray&lt;br&gt;&amp;nbsp;sourceArray" style="shape=document;whiteSpace=wrap;html=1;boundedLbl=1;" vertex="1" parent="WIyWlLk6GJQsqaUBKTNV-1">
          <mxGeometry x="337" y="954" width="110" height="60" as="geometry" />
        </mxCell>
        <mxCell id="MXWRrgh-1NHvLf5P_rR3-21" style="edgeStyle=orthogonalEdgeStyle;rounded=0;orthogonalLoop=1;jettySize=auto;html=1;exitX=1;exitY=0.5;exitDx=0;exitDy=0;" edge="1" parent="WIyWlLk6GJQsqaUBKTNV-1" source="MXWRrgh-1NHvLf5P_rR3-24">
          <mxGeometry relative="1" as="geometry">
            <mxPoint x="500.47" y="840" as="targetPoint" />
          </mxGeometry>
        </mxCell>
        <mxCell id="MXWRrgh-1NHvLf5P_rR3-22" value="да" style="edgeLabel;html=1;align=center;verticalAlign=middle;resizable=0;points=[];" vertex="1" connectable="0" parent="MXWRrgh-1NHvLf5P_rR3-21">
          <mxGeometry x="-0.3019" y="2" relative="1" as="geometry">
            <mxPoint as="offset" />
          </mxGeometry>
        </mxCell>
        <mxCell id="MXWRrgh-1NHvLf5P_rR3-23" style="edgeStyle=orthogonalEdgeStyle;rounded=0;orthogonalLoop=1;jettySize=auto;html=1;entryX=0;entryY=0.5;entryDx=0;entryDy=0;" edge="1" parent="WIyWlLk6GJQsqaUBKTNV-1" target="MXWRrgh-1NHvLf5P_rR3-26">
          <mxGeometry relative="1" as="geometry">
            <mxPoint x="386.47" y="920" as="sourcePoint" />
            <Array as="points">
              <mxPoint x="266.47" y="920" />
              <mxPoint x="266.47" y="695" />
            </Array>
          </mxGeometry>
        </mxCell>
        <mxCell id="MXWRrgh-1NHvLf5P_rR3-28" style="edgeStyle=orthogonalEdgeStyle;rounded=0;orthogonalLoop=1;jettySize=auto;html=1;" edge="1" parent="WIyWlLk6GJQsqaUBKTNV-1" source="MXWRrgh-1NHvLf5P_rR3-24">
          <mxGeometry relative="1" as="geometry">
            <mxPoint x="390.47000000000025" y="950" as="targetPoint" />
          </mxGeometry>
        </mxCell>
        <mxCell id="MXWRrgh-1NHvLf5P_rR3-24" value="sourceArray[i].Length =&amp;lt;3" style="rhombus;whiteSpace=wrap;html=1;shadow=0;fontFamily=Helvetica;fontSize=12;align=center;strokeWidth=1;spacing=6;spacingTop=-4;" vertex="1" parent="WIyWlLk6GJQsqaUBKTNV-1">
          <mxGeometry x="300.47" y="767" width="180" height="80" as="geometry" />
        </mxCell>
        <mxCell id="MXWRrgh-1NHvLf5P_rR3-25" style="edgeStyle=orthogonalEdgeStyle;rounded=0;orthogonalLoop=1;jettySize=auto;html=1;exitX=0.5;exitY=1;exitDx=0;exitDy=0;" edge="1" parent="WIyWlLk6GJQsqaUBKTNV-1" source="MXWRrgh-1NHvLf5P_rR3-26">
          <mxGeometry relative="1" as="geometry">
            <mxPoint x="385.3523529411766" y="759.9999999999998" as="targetPoint" />
          </mxGeometry>
        </mxCell>
        <mxCell id="MXWRrgh-1NHvLf5P_rR3-26" value="i=0; i&amp;lt;sourceArray.Length, i++" style="shape=hexagon;perimeter=hexagonPerimeter2;whiteSpace=wrap;html=1;fixedSize=1;" vertex="1" parent="WIyWlLk6GJQsqaUBKTNV-1">
          <mxGeometry x="300.47" y="670" width="170" height="50" as="geometry" />
        </mxCell>
        <mxCell id="MXWRrgh-1NHvLf5P_rR3-27" style="edgeStyle=orthogonalEdgeStyle;rounded=0;orthogonalLoop=1;jettySize=auto;html=1;" edge="1" parent="WIyWlLk6GJQsqaUBKTNV-1">
          <mxGeometry relative="1" as="geometry">
            <mxPoint x="500" y="890" as="sourcePoint" />
            <mxPoint x="406.47" y="911" as="targetPoint" />
            <Array as="points">
              <mxPoint x="501.47" y="911" />
              <mxPoint x="456.47" y="911" />
            </Array>
          </mxGeometry>
        </mxCell>
      </root>
    </mxGraphModel>
  </diagram>
</mxfile>
